<?xml version="1.0" encoding="UTF-8"?>
<!-- Generator: visioncortex VTracer 0.6.4 -->
<svg version="1.1" xmlns="http://www.w3.org/2000/svg" width="960" height="960">
<path d="M0 0 C316.8 0 633.6 0 960 0 C960 316.8 960 633.6 960 960 C643.2 960 326.4 960 0 960 C0 643.2 0 326.4 0 0 Z " fill="#FEFEFE" transform="translate(0,0)"/>
<path d="M0 0 C0.73976 0.38849 1.47952 0.77698 2.2417 1.17725 C12.74658 6.73601 22.5723 12.76436 32 20 C32.59394 20.44585 33.18787 20.89171 33.7998 21.35107 C51.50846 34.71442 68.0958 50.92707 81 69 C81.98771 70.34417 82.97602 71.6879 83.96484 73.03125 C95.91926 89.44639 106.02373 107.04587 114.00781 125.73242 C114.68975 127.29093 115.39728 128.83841 116.12573 130.37573 C119.3789 137.26635 121.86773 144.22854 124.125 151.5 C124.45887 152.55059 124.79273 153.60117 125.13672 154.68359 C128.72371 166.06351 131.57522 177.30155 133.625 189.0625 C133.84156 190.26455 134.05813 191.4666 134.28125 192.70508 C136.04639 202.6912 137.14484 212.47564 137.23828 222.61719 C137.24803 223.50415 137.25778 224.39111 137.26782 225.30495 C137.44453 245.55857 137.03231 265.07211 133 285 C132.8234 285.9104 132.6468 286.8208 132.46484 287.75879 C126.7972 316.29643 116.1527 344.3643 102.17871 369.83057 C101.09445 371.82617 100.04338 373.83427 99.00781 375.85547 C85.24995 402.60963 67.13709 427.10151 47.62109 449.90625 C45.16492 452.7851 42.80003 455.73122 40.4375 458.6875 C36.74382 463.23357 32.77581 467.3603 28.55469 471.41797 C26.50203 473.4926 24.59526 475.59021 22.69141 477.79688 C18.98933 482.06815 15.06964 486.07854 11.0625 490.0625 C10.39799 490.73088 9.73348 491.39926 9.04883 492.08789 C5.13402 495.9951 1.10944 499.71027 -3.07788 503.323 C-6.06382 505.92816 -8.93033 508.65633 -11.8125 511.375 C-16.77839 516.0219 -21.85251 520.44295 -27.16406 524.69531 C-29.85092 526.87884 -32.47347 529.11888 -35.08813 531.38745 C-41.56294 537.00414 -48.19326 542.35115 -55.03857 547.51123 C-57.30882 549.2344 -59.56263 550.97801 -61.81641 552.72266 C-71.82513 560.4477 -81.9648 567.85856 -92.45312 574.91797 C-96.14781 577.40647 -99.78385 579.96632 -103.4043 582.56128 C-112.22976 588.88325 -121.29266 594.74505 -130.52002 600.46143 C-133.02754 602.01708 -135.52791 603.58374 -138.02734 605.15234 C-180.03888 631.44359 -223.93902 655.92368 -269.52344 675.48828 C-273.13018 677.05661 -276.67996 678.72126 -280.20312 680.46875 C-288.98499 683.06513 -306.62569 671.84868 -314.08203 667.99609 C-318.95627 665.48372 -323.92097 663.16226 -328.875 660.8125 C-348.09153 651.64553 -366.93919 642.0966 -385.3999 631.48145 C-388.43801 629.75044 -391.50287 628.07346 -394.57471 626.40332 C-415.60158 614.92528 -435.70032 602.02268 -455.625 588.75 C-456.5047 588.16503 -457.38441 587.58005 -458.29077 586.97736 C-476.34668 574.95259 -493.85933 562.29414 -511 549 C-511.62391 548.51789 -512.24781 548.03578 -512.89062 547.53906 C-520.87939 541.35972 -528.67955 534.99518 -536.34375 528.41797 C-538.04686 526.95989 -539.75709 525.51053 -541.46875 524.0625 C-548.8896 517.76907 -556.12518 511.3105 -563.22705 504.65967 C-565.17802 502.83336 -567.13389 501.01237 -569.08984 499.19141 C-586.64107 482.82703 -586.64107 482.82703 -593.82812 474.45312 C-596.17646 471.80069 -598.59463 469.2249 -601.02563 466.64844 C-607.31451 459.98015 -613.32364 453.20422 -619 446 C-619.8445 444.94747 -620.68957 443.89541 -621.53516 442.84375 C-629.02814 433.47411 -636.09462 423.80903 -643 414 C-643.43667 413.38077 -643.87334 412.76153 -644.32324 412.12354 C-662.31282 386.40886 -677.61908 357.95752 -687.82422 328.25391 C-688.96277 324.97012 -688.96277 324.97012 -690.46094 321.77344 C-692.52383 317.03683 -693.68144 312.06076 -694.9375 307.0625 C-695.32772 305.52952 -695.32772 305.52952 -695.72583 303.96558 C-696.24703 301.91573 -696.7662 299.86536 -697.2832 297.81445 C-697.8937 295.41738 -698.52451 293.02793 -699.17188 290.64062 C-704.20026 271.6875 -706.222 252.39231 -706.1875 232.8125 C-706.1861 231.77697 -706.1861 231.77697 -706.18466 230.72052 C-706.15757 221.49818 -706.01935 212.47091 -704.41113 203.36523 C-703.88299 200.32684 -703.40977 197.28073 -702.92969 194.23438 C-700.7296 180.57428 -698.301 167.16428 -694 154 C-693.73429 153.18209 -693.46858 152.36418 -693.19482 151.52148 C-689.74586 141.03475 -685.91365 130.90009 -681 121 C-680.39894 119.75038 -679.79872 118.50036 -679.19922 117.25 C-669.42611 97.06652 -657.58964 78.06124 -643 61 C-642.04102 59.85601 -641.08273 58.71145 -640.125 57.56641 C-631.72367 47.5748 -623.00149 38.36172 -612.76172 30.20703 C-610.96991 28.77511 -609.19985 27.31538 -607.45703 25.82422 C-591.56095 12.2849 -572.31895 0.91133 -553 -7 C-552.01846 -7.40364 -552.01846 -7.40364 -551.01709 -7.81543 C-536.28851 -13.83017 -521.65926 -18.07673 -506 -21 C-504.61565 -21.27096 -503.23154 -21.54311 -501.84766 -21.81641 C-500.46101 -22.08631 -499.07429 -22.35585 -497.6875 -22.625 C-496.45387 -22.86477 -495.22023 -23.10453 -493.94922 -23.35156 C-486.20605 -24.71175 -478.41679 -25.16427 -470.56641 -25.23828 C-469.69882 -25.24803 -468.83123 -25.25778 -467.93735 -25.26782 C-441.82133 -25.50083 -417.0262 -24.16638 -392 -16 C-390.19596 -15.43152 -390.19596 -15.43152 -388.35547 -14.85156 C-379.12022 -11.76278 -370.56866 -7.57669 -362 -3 C-361.08686 -2.51443 -361.08686 -2.51443 -360.15527 -2.01904 C-330.9789 13.6527 -308.05329 36.46933 -289.25879 63.4707 C-287.34746 66.20391 -285.47678 68.75343 -283 71 C-282.7641 70.31164 -282.5282 69.62328 -282.28516 68.91406 C-280.74111 65.41298 -278.68088 62.44972 -276.4375 59.375 C-275.99205 58.75963 -275.5466 58.14427 -275.08765 57.51025 C-252.46791 26.53498 -224.99257 4.49021 -190 -11 C-188.61845 -11.61851 -188.61845 -11.61851 -187.20898 -12.24951 C-129.24642 -37.41045 -54.93693 -28.95813 0 0 Z " fill="#FE2C81" transform="translate(764,154)"/>
<path d="M0 0 C0.73976 0.38849 1.47952 0.77698 2.2417 1.17725 C12.74658 6.73601 22.5723 12.76436 32 20 C32.59394 20.44585 33.18787 20.89171 33.7998 21.35107 C51.50846 34.71442 68.0958 50.92707 81 69 C81.98771 70.34417 82.97602 71.6879 83.96484 73.03125 C95.91926 89.44639 106.02373 107.04587 114.00781 125.73242 C114.68975 127.29093 115.39728 128.83841 116.12573 130.37573 C119.3789 137.26635 121.86773 144.22854 124.125 151.5 C124.45887 152.55059 124.79273 153.60117 125.13672 154.68359 C128.72371 166.06351 131.57522 177.30155 133.625 189.0625 C133.84156 190.26455 134.05813 191.4666 134.28125 192.70508 C136.04639 202.6912 137.14484 212.47564 137.23828 222.61719 C137.24803 223.50415 137.25778 224.39111 137.26782 225.30495 C137.44453 245.55857 137.03231 265.07211 133 285 C132.8234 285.9104 132.6468 286.8208 132.46484 287.75879 C126.7972 316.29643 116.1527 344.3643 102.17871 369.83057 C101.09445 371.82617 100.04338 373.83427 99.00781 375.85547 C85.24995 402.60963 67.13709 427.10151 47.62109 449.90625 C45.16492 452.7851 42.80003 455.73122 40.4375 458.6875 C36.74382 463.23357 32.77581 467.3603 28.55469 471.41797 C26.50203 473.4926 24.59526 475.59021 22.69141 477.79688 C18.98933 482.06815 15.06964 486.07854 11.0625 490.0625 C10.39799 490.73088 9.73348 491.39926 9.04883 492.08789 C5.13402 495.9951 1.10944 499.71027 -3.07788 503.323 C-6.06382 505.92816 -8.93033 508.65633 -11.8125 511.375 C-16.77839 516.0219 -21.85251 520.44295 -27.16406 524.69531 C-29.85092 526.87884 -32.47347 529.11888 -35.08813 531.38745 C-41.56294 537.00414 -48.19326 542.35115 -55.03857 547.51123 C-57.30882 549.2344 -59.56263 550.97801 -61.81641 552.72266 C-71.82513 560.4477 -81.9648 567.85856 -92.45312 574.91797 C-96.14781 577.40647 -99.78385 579.96632 -103.4043 582.56128 C-112.22976 588.88325 -121.29266 594.74505 -130.52002 600.46143 C-133.02754 602.01708 -135.52791 603.58374 -138.02734 605.15234 C-180.03888 631.44359 -223.93902 655.92368 -269.52344 675.48828 C-273.13018 677.05661 -276.67996 678.72126 -280.20312 680.46875 C-288.98499 683.06513 -306.62569 671.84868 -314.08203 667.99609 C-318.95627 665.48372 -323.92097 663.16226 -328.875 660.8125 C-348.09153 651.64553 -366.93919 642.0966 -385.3999 631.48145 C-388.43801 629.75044 -391.50287 628.07346 -394.57471 626.40332 C-415.60158 614.92528 -435.70032 602.02268 -455.625 588.75 C-456.5047 588.16503 -457.38441 587.58005 -458.29077 586.97736 C-476.34668 574.95259 -493.85933 562.29414 -511 549 C-511.62391 548.51789 -512.24781 548.03578 -512.89062 547.53906 C-520.87939 541.35972 -528.67955 534.99518 -536.34375 528.41797 C-538.04686 526.95989 -539.75709 525.51053 -541.46875 524.0625 C-548.8896 517.76907 -556.12518 511.3105 -563.22705 504.65967 C-565.17802 502.83336 -567.13389 501.01237 -569.08984 499.19141 C-586.64107 482.82703 -586.64107 482.82703 -593.82812 474.45312 C-596.17646 471.80069 -598.59463 469.2249 -601.02563 466.64844 C-607.31451 459.98015 -613.32364 453.20422 -619 446 C-619.8445 444.94747 -620.68957 443.89541 -621.53516 442.84375 C-629.02814 433.47411 -636.09462 423.80903 -643 414 C-643.43667 413.38077 -643.87334 412.76153 -644.32324 412.12354 C-662.31282 386.40886 -677.61908 357.95752 -687.82422 328.25391 C-688.96277 324.97012 -688.96277 324.97012 -690.46094 321.77344 C-692.52383 317.03683 -693.68144 312.06076 -694.9375 307.0625 C-695.32772 305.52952 -695.32772 305.52952 -695.72583 303.96558 C-696.24703 301.91573 -696.7662 299.86536 -697.2832 297.81445 C-697.8937 295.41738 -698.52451 293.02793 -699.17188 290.64062 C-704.20026 271.6875 -706.222 252.39231 -706.1875 232.8125 C-706.1861 231.77697 -706.1861 231.77697 -706.18466 230.72052 C-706.15757 221.49818 -706.01935 212.47091 -704.41113 203.36523 C-703.88299 200.32684 -703.40977 197.28073 -702.92969 194.23438 C-700.7296 180.57428 -698.301 167.16428 -694 154 C-693.73429 153.18209 -693.46858 152.36418 -693.19482 151.52148 C-689.74586 141.03475 -685.91365 130.90009 -681 121 C-680.39894 119.75038 -679.79872 118.50036 -679.19922 117.25 C-669.42611 97.06652 -657.58964 78.06124 -643 61 C-642.04102 59.85601 -641.08273 58.71145 -640.125 57.56641 C-631.72367 47.5748 -623.00149 38.36172 -612.76172 30.20703 C-610.96991 28.77511 -609.19985 27.31538 -607.45703 25.82422 C-591.56095 12.2849 -572.31895 0.91133 -553 -7 C-552.01846 -7.40364 -552.01846 -7.40364 -551.01709 -7.81543 C-536.28851 -13.83017 -521.65926 -18.07673 -506 -21 C-504.61565 -21.27096 -503.23154 -21.54311 -501.84766 -21.81641 C-500.46101 -22.08631 -499.07429 -22.35585 -497.6875 -22.625 C-496.45387 -22.86477 -495.22023 -23.10453 -493.94922 -23.35156 C-486.20605 -24.71175 -478.41679 -25.16427 -470.56641 -25.23828 C-469.69882 -25.24803 -468.83123 -25.25778 -467.93735 -25.26782 C-441.82133 -25.50083 -417.0262 -24.16638 -392 -16 C-390.19596 -15.43152 -390.19596 -15.43152 -388.35547 -14.85156 C-379.12022 -11.76278 -370.56866 -7.57669 -362 -3 C-361.08686 -2.51443 -361.08686 -2.51443 -360.15527 -2.01904 C-330.9789 13.6527 -308.05329 36.46933 -289.25879 63.4707 C-287.34746 66.20391 -285.47678 68.75343 -283 71 C-282.7641 70.31164 -282.5282 69.62328 -282.28516 68.91406 C-280.74111 65.41298 -278.68088 62.44972 -276.4375 59.375 C-275.99205 58.75963 -275.5466 58.14427 -275.08765 57.51025 C-252.46791 26.53498 -224.99257 4.49021 -190 -11 C-188.61845 -11.61851 -188.61845 -11.61851 -187.20898 -12.24951 C-129.24642 -37.41045 -54.93693 -28.95813 0 0 Z M-530 24 C-531.53721 24.54914 -531.53721 24.54914 -533.10547 25.10938 C-554.98617 33.62711 -574.55062 46.44525 -592 62 C-592.51546 62.45375 -593.03093 62.9075 -593.56201 63.375 C-620.93159 87.51303 -641.13713 118.95774 -654 153 C-654.27006 153.70979 -654.54012 154.41958 -654.81836 155.15088 C-667.90591 190.20452 -672.62519 230.94498 -666 268 C-665.85466 268.82951 -665.70932 269.65902 -665.55957 270.51367 C-654.26391 332.60598 -620.30917 389.72926 -577.98047 435.83594 C-576.0916 437.89991 -574.26054 440.0029 -572.4375 442.125 C-569.50488 445.49785 -566.40221 448.64614 -563.1875 451.75 C-561.27754 453.71453 -559.50173 455.72638 -557.71875 457.80469 C-554.20518 461.84716 -550.44053 465.50339 -546.5 469.125 C-545.08977 470.43221 -543.67961 471.7395 -542.26953 473.04688 C-541.56006 473.70236 -540.8506 474.35785 -540.11963 475.0332 C-538.0726 476.93264 -536.03972 478.8459 -534.01172 480.76562 C-527.75233 486.68184 -521.45409 492.43023 -514.71875 497.80859 C-512.26397 499.78723 -509.86397 501.81816 -507.47485 503.87524 C-499.98255 510.31339 -492.19507 516.32038 -484.30518 522.26123 C-481.95681 524.03258 -479.61673 525.81447 -477.27734 527.59766 C-460.05722 540.67623 -442.36799 553.092 -424.10107 564.66699 C-421.89738 566.06511 -419.7005 567.47357 -417.50391 568.88281 C-378.17562 594.0255 -336.93443 616.843 -294.32153 635.91211 C-292 637 -292 637 -288.75 638.875 C-284.59084 640.57647 -281.07424 639.79559 -276.90967 638.19824 C-274.60053 637.15993 -272.33028 636.06326 -270.0625 634.9375 C-269.22187 634.52903 -268.38124 634.12056 -267.51514 633.69971 C-265.00514 632.47628 -262.50209 631.23951 -260 630 C-258.74105 629.38377 -257.48195 628.76786 -256.22266 628.15234 C-252.12946 626.13866 -248.06382 624.0722 -244 622 C-242.96053 621.47132 -241.92106 620.94265 -240.8501 620.39795 C-215.64776 607.55503 -191.20569 593.67423 -167.09375 578.8877 C-164.50983 577.31108 -161.91707 575.75306 -159.3125 574.21094 C-149.38445 568.30824 -139.80991 561.91329 -130.25 555.4375 C-129.59768 554.99588 -128.94537 554.55425 -128.27328 554.09924 C-116.4241 546.06497 -104.68208 537.87083 -93.25 529.25 C-92.59862 528.75959 -91.94724 528.26918 -91.27612 527.76392 C-79.6015 518.94607 -68.02608 510.03562 -56.92969 500.49609 C-54.22306 498.19005 -51.46824 495.96552 -48.6875 493.75 C-41.78416 488.13287 -35.40565 481.95814 -28.95166 475.83838 C-26.62465 473.64644 -24.26943 471.48721 -21.9082 469.33228 C-12.79934 461.01361 -3.78723 452.4925 4.20312 443.07812 C6.06966 440.91944 7.99832 438.82503 9.94019 436.73413 C15.55253 430.68441 20.86656 424.46522 26 418 C26.7396 417.08517 26.7396 417.08517 27.49414 416.15186 C60.06106 375.837 86.50506 328.37535 96 277 C96.25161 275.76613 96.25161 275.76613 96.5083 274.50732 C108.33543 215.99252 92.72136 153.89773 60.51807 104.26123 C52.98573 93.04146 44.40273 82.69205 35 73 C34.43023 72.40445 33.86047 71.80891 33.27344 71.19531 C25.05695 62.62919 16.72793 54.82766 7 48 C6.41251 47.58412 5.82502 47.16823 5.21973 46.73975 C-7.75478 37.62448 -21.03754 30.33641 -36 25 C-37.33407 24.48106 -38.66751 23.96048 -40 23.4375 C-83.97498 7.16402 -137.65498 5.54601 -180.75 25.3125 C-203.77464 36.37221 -224.60466 52.53784 -240 73 C-240.85502 74.0928 -241.71051 75.18523 -242.56641 76.27734 C-248.08707 83.44231 -252.8777 90.90257 -257.375 98.75 C-257.86267 99.60062 -258.35034 100.45124 -258.85278 101.32764 C-267.46989 116.68412 -273.73552 133.23235 -279 150 C-279.31066 150.9784 -279.62133 151.9568 -279.94141 152.96484 C-281.91433 159.60797 -282.6502 166.08848 -283 173 C-283.66 173 -284.32 173 -285 173 C-284.96906 171.97906 -284.93813 170.95812 -284.90625 169.90625 C-285.91162 128.01595 -318.17667 80.83748 -347.17969 52.57812 C-396.26057 7.71194 -469.1321 1.97593 -530 24 Z " fill="#010000" transform="translate(764,154)"/>
<path d="M0 0 C0.85932 -0.00807 1.71863 -0.01614 2.60399 -0.02446 C4.43055 -0.03829 6.25714 -0.04902 8.08374 -0.05688 C9.9152 -0.06827 11.74663 -0.08851 13.57788 -0.11841 C29.87522 -0.38397 45.51102 1.40863 60.80859 7.36328 C61.57792 7.65695 62.34725 7.95061 63.13989 8.25317 C87.99161 18.06127 110.5887 34.26443 127.30859 55.23828 C127.30859 55.89828 127.30859 56.55828 127.30859 57.23828 C123.26081 56.18234 119.47712 54.92667 115.62109 53.30078 C97.89765 46.13711 78.35434 44.66531 59.43359 44.80078 C58.55172 44.80316 57.66985 44.80553 56.76126 44.80798 C35.11795 44.89858 14.19259 47.41465 -6.69141 53.23828 C-9.22398 53.86949 -11.76065 54.4824 -14.29761 55.0957 C-22.57772 57.10819 -30.67292 59.33504 -38.69141 62.23828 C-39.84898 62.62113 -41.00656 63.00398 -42.19922 63.39844 C-67.27592 71.93471 -89.43949 87.32158 -108.69141 105.23828 C-109.40812 105.88926 -110.12484 106.54023 -110.86328 107.21094 C-133.88699 129.01624 -152.95106 162.64977 -159.01562 193.75391 C-159.23863 194.57375 -159.46164 195.39359 -159.69141 196.23828 C-160.35141 196.56828 -161.01141 196.89828 -161.69141 197.23828 C-161.76687 191.60476 -161.82061 185.97156 -161.8562 180.33765 C-161.87107 178.43037 -161.89138 176.52312 -161.91772 174.61597 C-162.14594 157.64289 -160.6641 141.64579 -155.65625 125.375 C-154.75646 122.44977 -153.99499 119.51932 -153.25391 116.55078 C-151.68157 110.78834 -149.26789 105.61151 -146.69141 100.23828 C-146.08198 98.88922 -145.4754 97.53887 -144.87109 96.1875 C-140.85969 87.29539 -136.50546 79.1191 -130.69141 71.23828 C-130.29615 70.69639 -129.90089 70.1545 -129.49365 69.59619 C-110.90283 44.30143 -86.43565 26.52749 -57.69141 14.23828 C-56.95922 13.92375 -56.22703 13.60922 -55.47266 13.28516 C-44.74733 8.74179 -34.09625 5.5591 -22.69141 3.23828 C-21.13486 2.9173 -21.13486 2.9173 -19.54688 2.58984 C-17.92366 2.26187 -16.29897 1.94095 -14.67188 1.63281 C-13.37572 1.3746 -12.08726 1.07315 -10.81239 0.72469 C-7.25723 -0.09062 -3.63151 0.03285 0 0 Z " fill="#FFFDFE" transform="translate(290.69140625,194.76171875)"/>
<path d="M0 0 C1.18336 0.02965 2.36672 0.0593 3.58594 0.08984 C21.41384 1.01043 40.34837 6.40157 56 15 C56 15.33 56 15.66 56 16 C55.12602 16.02973 55.12602 16.02973 54.23438 16.06006 C36.90005 16.67671 20.6717 17.82798 4 23 C0.58263 23.93303 -2.83618 24.86007 -6.25781 25.77734 C-46.43142 38.90296 -86.70736 63.28037 -117.76953 91.96094 C-119.81902 93.83455 -121.92541 95.60319 -124.0625 97.375 C-129.02229 101.70609 -132.98878 106.80157 -137 112 C-137.70512 112.91266 -138.41023 113.82531 -139.13672 114.76562 C-143.26181 120.26575 -146.73118 125.86319 -149.87109 131.98047 C-150.24363 132.64691 -150.61617 133.31336 -151 134 C-151.33 134 -151.66 134 -152 134 C-150.37769 115.83011 -146.10259 98.39038 -138 82 C-137.48695 80.90172 -136.97391 79.80344 -136.44531 78.67188 C-120.19075 44.66464 -91.39136 20.11397 -56.4375 6.8125 C-37.97451 0.41943 -19.38276 -0.52087 0 0 Z " fill="#FFFCFD" transform="translate(660,196)"/>
<path d="M0 0 C4.05079 2.80439 6.96948 5.07641 8 10 C8.06047 14.24179 7.47056 17.22694 5.25 20.875 C1.99533 23.94886 -0.53763 24.81331 -4.9375 25.375 C-8.95422 24.88316 -10.91866 23.60202 -14 21 C-17.10683 16.69053 -17.43052 13.21713 -16.64062 8.11719 C-15.33159 3.791 -12.34526 1.75887 -8.5625 -0.375 C-5.22822 -1.18824 -3.29225 -1.00783 0 0 Z " fill="#FCFCFC" transform="translate(742,904)"/>
<path d="M0 0 C3 1.5 3 1.5 5 4 C6.34984 8.43759 6.32821 11.95746 4.9375 16.375 C2.54575 19.61543 0.79964 20.68474 -3 22 C-6.8125 22.25 -6.8125 22.25 -10 22 C-12.36668 19.63332 -11.18543 13.68038 -11.1875 10.5 C-11.19975 9.51129 -11.21199 8.52258 -11.22461 7.50391 C-11.22654 6.56418 -11.22848 5.62445 -11.23047 4.65625 C-11.23458 3.78807 -11.23869 2.91988 -11.24292 2.02539 C-11.16276 1.35701 -11.08259 0.68863 -11 0 C-7.4891 -1.75545 -3.73705 -0.80679 0 0 Z " fill="#BFBFBF" transform="translate(764,906)"/>
<path d="M0 0 C4 1 4 1 6.14062 4.16016 C6.85703 5.45367 7.55974 6.75485 8.25 8.0625 C8.61352 8.72572 8.97703 9.38895 9.35156 10.07227 C10.24617 11.70845 11.12466 13.35343 12 15 C12.33 10.05 12.66 5.1 13 0 C13.99 0.33 14.98 0.66 16 1 C16.34058 3.04126 16.34058 3.04126 16.29297 5.69141 C16.2833 6.63564 16.27363 7.57988 16.26367 8.55273 C16.23854 9.54596 16.2134 10.53918 16.1875 11.5625 C16.1672 13.05813 16.1672 13.05813 16.14648 14.58398 C16.11099 17.05652 16.06156 19.528 16 22 C13.62622 21.68384 13.62622 21.68384 11 21 C9.47624 18.78068 8.33193 16.835 7.1875 14.4375 C6.87619 13.82197 6.56488 13.20645 6.24414 12.57227 C5.48018 11.05609 4.73793 9.52901 4 8 C3.67 12.62 3.34 17.24 3 22 C2.01 22 1.02 22 0 22 C0 14.74 0 7.48 0 0 Z " fill="#B8B8B8" transform="translate(830,905)"/>
<path d="M0 0 C1.32 0 2.64 0 4 0 C5.09668 1.92773 5.09668 1.92773 5.92188 4.59375 C6.2248 5.54121 6.52773 6.48867 6.83984 7.46484 C7.1402 8.46645 7.44055 9.46805 7.75 10.5 C8.06582 11.5016 8.38164 12.5032 8.70703 13.53516 C9.48763 16.01886 10.25098 18.50662 11 21 C9.0625 21.5625 9.0625 21.5625 7 22 C6 21 6 21 5.9375 18.4375 C5.95812 17.63312 5.97875 16.82875 6 16 C2.55652 16.09863 2.55652 16.09863 -1 17 C-2.53137 19.44897 -2.53137 19.44897 -3 22 C-4.32 21.67 -5.64 21.34 -7 21 C-5.94574 17.49056 -4.85194 13.99474 -3.75 10.5 C-3.44965 9.4984 -3.1493 8.4968 -2.83984 7.46484 C-2.53691 6.51738 -2.23398 5.56992 -1.92188 4.59375 C-1.64956 3.71396 -1.37725 2.83418 -1.09668 1.92773 C-0.55382 0.97351 -0.55382 0.97351 0 0 Z " fill="#BABABA" transform="translate(855,905)"/>
<path d="M0 0 C3.5625 0.1875 3.5625 0.1875 5.5625 2.1875 C3.67982 4.07018 0.99188 3.59371 -1.52734 3.80859 C-3.67039 4.04972 -3.67039 4.04972 -5.4375 6.1875 C-5.79465 8.52154 -5.79465 8.52154 -5.75 11.125 C-5.76676 12.00027 -5.78352 12.87555 -5.80078 13.77734 C-5.37021 16.63392 -4.72822 17.48303 -2.4375 19.1875 C0.16861 19.90947 0.16861 19.90947 2.5625 20.1875 C2.5625 17.8775 2.5625 15.5675 2.5625 13.1875 C1.5725 13.1875 0.5825 13.1875 -0.4375 13.1875 C-0.4375 12.1975 -0.4375 11.2075 -0.4375 10.1875 C1.56205 10.14496 3.56292 10.14669 5.5625 10.1875 C7.23069 11.85569 6.81273 13.84079 6.875 16.125 C6.91238 17.0209 6.94977 17.9168 6.98828 18.83984 C6.5625 21.1875 6.5625 21.1875 4.79688 22.51562 C1.22011 23.59116 -1.86002 23.11047 -5.4375 22.1875 C-8.41778 20.20065 -9.52537 17.60799 -10.4375 14.1875 C-10.61881 9.48293 -10.0358 6.89051 -6.9375 3.25 C-6.1125 2.56938 -5.2875 1.88875 -4.4375 1.1875 C-3.4375 0.1875 -3.4375 0.1875 0 0 Z " fill="#BEBEBE" transform="translate(820.4375,904.8125)"/>
<path d="M0 0 C0.99 0 1.98 0 3 0 C3.33 2.64 3.66 5.28 4 8 C4.58008 7.11635 4.58008 7.11635 5.17188 6.21484 C5.69266 5.46332 6.21344 4.7118 6.75 3.9375 C7.26047 3.1834 7.77094 2.4293 8.29688 1.65234 C9.13992 0.83443 9.13992 0.83443 10 0 C12.20312 0.25391 12.20312 0.25391 14 1 C13.54367 1.51949 13.08734 2.03898 12.61719 2.57422 C10.90184 4.65494 9.35901 6.66964 8 9 C8.19327 11.73506 8.19327 11.73506 10 14 C14 20 14 20 14 22 C12.68 22 11.36 22 10 22 C8.55078 20.03125 8.55078 20.03125 7.3125 17.5 C6.56015 15.99064 5.79409 14.48782 5 13 C4.67 13 4.34 13 4 13 C3.67 15.97 3.34 18.94 3 22 C2.01 22 1.02 22 0 22 C0 14.74 0 7.48 0 0 Z " fill="#B4B4B4" transform="translate(891,905)"/>
<path d="M0 0 C4.05079 2.80439 6.96948 5.07641 8 10 C8.06047 14.24179 7.47056 17.22694 5.25 20.875 C1.99533 23.94886 -0.53763 24.81331 -4.9375 25.375 C-8.95422 24.88316 -10.91866 23.60202 -14 21 C-17.10683 16.69053 -17.43052 13.21713 -16.64062 8.11719 C-15.33159 3.791 -12.34526 1.75887 -8.5625 -0.375 C-5.22822 -1.18824 -3.29225 -1.00783 0 0 Z M-14 6 C-15.53215 9.0643 -15.22939 11.61656 -15 15 C-13.21916 19.12405 -11.18797 21.32481 -7 23 C-2.74223 23.28838 0.10887 22.69063 3.5 20.0625 C5.65852 15.65553 5.88367 11.81287 5 7 C3.26978 3.68633 3.26978 3.68633 0 2 C-5.81312 0.83317 -9.8262 1.56534 -14 6 Z " fill="#BEBEBE" transform="translate(742,904)"/>
<path d="M0 0 C2.31 0.33 4.62 0.66 7 1 C9.08133 4.122 9.27378 4.93267 9.25 8.5 C9.25516 9.27344 9.26031 10.04688 9.26562 10.84375 C9 13 9 13 7 16 C4.69 16.33 2.38 16.66 0 17 C0 11.39 0 5.78 0 0 Z " fill="#FEFEFE" transform="translate(757,908)"/>
<path d="M0 0 C0.33 0.99 0.66 1.98 1 3 C-1.31 3 -3.62 3 -6 3 C-5.9622 5.37234 -5.9622 5.37234 -5 8 C-2.09294 10.16027 -2.09294 10.16027 1 12 C3 15 3 15 2.9375 17.5 C2 20 2 20 -0.125 21.875 C-3.78537 23.30732 -6.20874 22.81772 -10 22 C-10 21.01 -10 20.02 -10 19 C-7.36 19 -4.72 19 -2 19 C-1.49759 16.67041 -1.49759 16.67041 -2 14 C-4.85251 11.82053 -4.85251 11.82053 -8 10 C-10 7 -10 7 -9.8125 5 C-7.80804 0.06594 -5.21412 -0.6801 0 0 Z " fill="#BBBBBB" transform="translate(797,905)"/>
<path d="M0 0 C3.3 0 6.6 0 10 0 C10 0.66 10 1.32 10 2 C7.36 2 4.72 2 2 2 C1.93051 5.00293 1.93051 5.00293 3 8 C6.50825 8.98953 6.50825 8.98953 10 9 C10 9.66 10 10.32 10 11 C7.36 11 4.72 11 2 11 C1.84517 14.5026 1.84517 14.5026 3 18 C5.76746 19.02975 7.99348 18.95228 11 19 C11 19.66 11 20.32 11 21 C7.37 21 3.74 21 0 21 C0 14.07 0 7.14 0 0 Z " fill="#B2B2B2" transform="translate(916,906)"/>
<path d="M0 0 C3.3 0 6.6 0 10 0 C10 0.66 10 1.32 10 2 C7.36 2 4.72 2 2 2 C1.93051 5.00293 1.93051 5.00293 3 8 C6.50825 8.98953 6.50825 8.98953 10 9 C10 9.66 10 10.32 10 11 C7.36 11 4.72 11 2 11 C1.84517 14.5026 1.84517 14.5026 3 18 C5.76746 19.02975 7.99348 18.95228 11 19 C11 19.66 11 20.32 11 21 C7.37 21 3.74 21 0 21 C0 14.07 0 7.14 0 0 Z " fill="#B2B2B2" transform="translate(774,906)"/>
<path d="M0 0 C0.99 0 1.98 0 3 0 C3 6.27 3 12.54 3 19 C5.64 19 8.28 19 11 19 C11 19.66 11 20.32 11 21 C7.37 21 3.74 21 0 21 C0 14.07 0 7.14 0 0 Z " fill="#B2B2B2" transform="translate(869,906)"/>
<path d="M0 0 C0 0.66 0 1.32 0 2 C-1.29938 2.02062 -2.59875 2.04125 -3.9375 2.0625 C-6.1239 2.23114 -6.1239 2.23114 -8 3 C-9.33093 6.3997 -9.33093 6.3997 -9 10 C-7.04366 12.41122 -7.04366 12.41122 -3.375 12.125 C-2.26125 12.08375 -1.1475 12.0425 0 12 C-0.33 12.99 -0.66 13.98 -1 15 C-4.82174 15.50476 -7.11579 15.54413 -10.4375 13.5 C-12.32575 10.4788 -12.70023 8.43752 -12.51562 4.91016 C-12 3 -12 3 -9.375 0.4375 C-5.61162 -1.16542 -3.8764 -1.10754 0 0 Z " fill="#B9B9B9" transform="translate(743,909)"/>
<path d="M0 0 C0 3 0 3 -1.5 4.75 C-3.64601 7.96902 -3.39953 10.20442 -3 14 C-1.7476 16.81789 -0.75789 18.45865 1.75 20.25 C4.79304 21.26435 7.82099 21.63319 11 22 C9 24 9 24 6.25 24.375 C2.11347 23.89771 0.171 22.67774 -3 20 C-6.10869 15.68795 -6.41003 12.22757 -5.66016 7.125 C-4.64291 3.85055 -2.62906 2.08976 0 0 Z " fill="#BABABA" transform="translate(731,905)"/>
<path d="M0 0 C0.99 0 1.98 0 3 0 C3 6.93 3 13.86 3 21 C2.01 21 1.02 21 0 21 C0 14.07 0 7.14 0 0 Z " fill="#B2B2B2" transform="translate(908,906)"/>
<path d="M0 0 C2.13281 0.36719 2.13281 0.36719 4 1 C3.09674 2.32176 2.17682 3.63215 1.25 4.9375 C0.73953 5.6684 0.22906 6.3993 -0.29688 7.15234 C-2.19178 9.20805 -3.27426 9.62669 -6 10 C-4.6363 6.02255 -2.99079 2.99079 0 0 Z " fill="#BCBCBC" transform="translate(901,905)"/>
<path d="M0 0 C0 3 0 3 -1.45703 4.85938 C-3.31599 7.43839 -3.48068 9.10626 -3.6875 12.25 C-3.78611 13.58805 -3.78611 13.58805 -3.88672 14.95312 C-3.94279 15.96633 -3.94279 15.96633 -4 17 C-6.49754 13.25369 -6.1872 11.53836 -5.625 7.23047 C-4.68151 3.8634 -2.67899 2.12946 0 0 Z " fill="#B4B4B4" transform="translate(731,905)"/>
<path d="M0 0 C0 0.66 0 1.32 0 2 C-1.27875 2.12375 -2.5575 2.2475 -3.875 2.375 C-7.34791 2.69042 -7.34791 2.69042 -10 5 C-10.66 5 -11.32 5 -12 5 C-11.05187 2.62968 -10.31103 1.23327 -8.25 -0.3125 C-5.24828 -1.22969 -3.02231 -0.68689 0 0 Z " fill="#C2C2C2" transform="translate(743,909)"/>
<path d="M0 0 C0.66 0.33 1.32 0.66 2 1 C2.40729 3.32157 2.74439 5.65688 3 8 C1.68 8 0.36 8 -1 8 C-0.67 5.36 -0.34 2.72 0 0 Z " fill="#FAFAFA" transform="translate(856,910)"/>
<path d="M0 0 C0 0.66 0 1.32 0 2 C-2.64 2.33 -5.28 2.66 -8 3 C-8 2.01 -8 1.02 -8 0 C-5.12679 -1.23138 -2.89363 -1.13678 0 0 Z " fill="#C5C5C5" transform="translate(740,904)"/>
<path d="M0 0 C0 3.52032 -0.70351 4.43853 -3 7 C-3.66 7 -4.32 7 -5 7 C-3.75023 3.34683 -3.32901 2.21934 0 0 Z " fill="#B7B7B7" transform="translate(731,905)"/>
<path d="M0 0 C3.0625 0.375 3.0625 0.375 6 1 C5.67 1.66 5.34 2.32 5 3 C1.9375 2.625 1.9375 2.625 -1 2 C-0.67 1.34 -0.34 0.68 0 0 Z " fill="#B4B4B4" transform="translate(820,905)"/>
<path d="M0 0 C0.75 1.875 0.75 1.875 1 4 C-0.9375 5.25 -0.9375 5.25 -3 6 C-2.01 4.02 -1.02 2.04 0 0 Z " fill="#B8B8B8" transform="translate(748,918)"/>
<path d="M0 0 C2.0625 0.25 2.0625 0.25 4 1 C4 1.66 4 2.32 4 3 C2.35 2.67 0.7 2.34 -1 2 C-0.67 1.34 -0.34 0.68 0 0 Z " fill="#B5B5B5" transform="translate(794,905)"/>
</svg>
