<?xml version="1.0" encoding="UTF-8"?>
<!-- Generator: visioncortex VTracer 0.6.4 -->
<svg version="1.1" xmlns="http://www.w3.org/2000/svg" width="960" height="960">
<path d="M0 0 C13.256 12.267 26.284 24.873 36.832 39.586 C37.682 40.731 38.534 41.876 39.387 43.02 C81.641 100.226 99.866 173.465 89.688 243.668 C79.344 309.699 45.566 369.875 2.24 419.952 C0.725 421.71 -0.775 423.481 -2.273 425.254 C-11.41 436.042 -11.41 436.042 -16.485 440.902 C-18.199 442.617 -19.767 444.402 -21.34 446.246 C-25.245 450.737 -29.387 454.953 -33.605 459.148 C-34.318 459.865 -35.03 460.581 -35.764 461.318 C-39.793 465.34 -43.92 469.179 -48.232 472.895 C-51.399 475.661 -54.429 478.569 -57.48 481.461 C-62.647 486.319 -67.904 490.967 -73.449 495.395 C-75.904 497.373 -78.304 499.405 -80.694 501.462 C-88.221 507.931 -96.061 513.944 -103.979 519.924 C-106.139 521.564 -108.288 523.219 -110.434 524.879 C-171.502 572.105 -240.092 612.23 -310.591 643.632 C-312.006 644.263 -313.42 644.898 -314.832 645.537 C-316.793 646.422 -318.762 647.288 -320.734 648.148 C-321.858 648.645 -322.981 649.141 -324.139 649.652 C-331.347 651.874 -338.615 647.006 -345.168 644.148 C-346.136 643.728 -346.136 643.728 -347.124 643.299 C-371.504 632.682 -395.496 621.015 -418.673 607.976 C-421.27 606.529 -423.883 605.118 -426.504 603.715 C-462.835 584.238 -497.765 561.727 -531.168 537.586 C-531.929 537.037 -532.69 536.489 -533.475 535.923 C-544.086 528.255 -554.395 520.306 -564.487 511.967 C-566.755 510.104 -569.054 508.282 -571.355 506.461 C-580.318 499.303 -589.006 491.845 -597.438 484.07 C-599.593 482.109 -601.769 480.187 -603.969 478.277 C-608.253 474.539 -612.41 470.677 -616.543 466.773 C-617.656 465.723 -617.656 465.723 -618.791 464.652 C-626.185 457.653 -633.512 450.65 -640.133 442.902 C-642.316 440.418 -644.567 438.008 -646.831 435.597 C-652.898 429.135 -658.648 422.526 -664.168 415.586 C-665.087 414.457 -666.008 413.33 -666.93 412.203 C-683.576 391.767 -697.984 370.087 -710.79 347.064 C-711.653 345.512 -712.52 343.963 -713.394 342.417 C-749.004 279.291 -761.248 203.792 -742.168 133.586 C-730.454 92.772 -711.012 55.404 -682.328 23.965 C-680.365 21.803 -678.448 19.611 -676.543 17.398 C-639.08 -25.49 -581.231 -50.808 -525.168 -55.414 C-522.023 -55.567 -518.883 -55.623 -515.734 -55.652 C-514.433 -55.667 -514.433 -55.667 -513.106 -55.682 C-454.212 -56.212 -403.176 -40.324 -360.406 1.062 C-349.885 11.434 -341.19 22.814 -332.945 35.039 C-331.264 37.607 -331.264 37.607 -329.168 39.586 C-328.852 39.129 -328.535 38.671 -328.209 38.2 C-295.282 -9.27 -252.736 -42.391 -195.098 -53.379 C-126.951 -65.627 -51.79 -46.57 0 0 Z M-274.804 30.243 C-287.041 43.335 -296.657 57.862 -305.168 73.586 C-305.539 74.266 -305.91 74.947 -306.292 75.647 C-314.113 90.135 -319.764 105.564 -324.605 121.273 C-324.976 122.456 -324.976 122.456 -325.354 123.663 C-327.018 129.274 -327.765 134.753 -328.168 140.586 C-328.828 140.586 -329.488 140.586 -330.168 140.586 C-330.28 139.292 -330.392 137.998 -330.508 136.664 C-331.065 131.695 -332.253 127.103 -333.73 122.336 C-333.993 121.479 -334.255 120.622 -334.526 119.739 C-345.583 84.409 -362.363 53.299 -388.168 26.586 C-388.779 25.923 -389.39 25.261 -390.02 24.578 C-412.688 0.569 -446.092 -12.676 -478.168 -17.414 C-478.803 -17.508 -479.438 -17.603 -480.092 -17.7 C-487.463 -18.663 -494.87 -18.658 -502.293 -18.664 C-503.351 -18.665 -503.351 -18.665 -504.43 -18.666 C-553.909 -18.591 -600.191 -1.376 -637.168 31.586 C-637.683 32.04 -638.199 32.493 -638.73 32.961 C-683.275 72.247 -709.551 130.948 -713.891 189.809 C-716.653 234.155 -703.901 278.218 -684.168 317.586 C-683.79 318.352 -683.411 319.118 -683.021 319.908 C-671.147 343.811 -655.9 365.856 -639.168 386.586 C-638.386 387.563 -637.603 388.54 -636.797 389.547 C-632.448 394.928 -627.949 400.133 -623.289 405.246 C-621.36 407.374 -619.478 409.533 -617.605 411.711 C-614.673 415.084 -611.57 418.232 -608.355 421.336 C-606.446 423.3 -604.67 425.312 -602.887 427.391 C-599.373 431.433 -595.608 435.089 -591.668 438.711 C-590.258 440.018 -588.848 441.325 -587.438 442.633 C-586.728 443.288 -586.019 443.944 -585.288 444.619 C-583.241 446.519 -581.208 448.432 -579.18 450.352 C-572.92 456.268 -566.622 462.016 -559.887 467.395 C-557.432 469.373 -555.032 471.404 -552.643 473.461 C-545.151 479.899 -537.363 485.906 -529.473 491.847 C-527.125 493.619 -524.785 495.4 -522.445 497.184 C-505.225 510.262 -487.536 522.678 -469.269 534.253 C-467.065 535.651 -464.868 537.06 -462.672 538.469 C-442.624 551.286 -422.013 563.118 -401.168 574.586 C-400.078 575.187 -398.988 575.787 -397.864 576.406 C-380.036 586.192 -361.926 595.332 -343.526 603.994 C-341.492 604.958 -339.468 605.942 -337.462 606.963 C-336.699 607.34 -335.935 607.717 -335.148 608.105 C-334.533 608.422 -333.917 608.739 -333.282 609.066 C-327.394 610.515 -322.018 607.885 -316.848 605.297 C-316.159 604.962 -315.471 604.627 -314.762 604.281 C-312.517 603.185 -310.28 602.073 -308.043 600.961 C-306.473 600.188 -304.903 599.416 -303.333 598.644 C-272.155 583.27 -241.897 566.647 -212.262 548.474 C-209.678 546.897 -207.085 545.339 -204.48 543.797 C-194.552 537.894 -184.978 531.499 -175.418 525.023 C-174.766 524.582 -174.113 524.14 -173.441 523.685 C-161.592 515.651 -149.85 507.457 -138.418 498.836 C-137.767 498.346 -137.115 497.855 -136.444 497.35 C-124.769 488.532 -113.194 479.622 -102.098 470.082 C-99.391 467.776 -96.636 465.551 -93.855 463.336 C-86.952 457.719 -80.574 451.544 -74.12 445.424 C-71.793 443.232 -69.437 441.073 -67.076 438.918 C-57.967 430.6 -48.955 422.078 -40.965 412.664 C-39.098 410.505 -37.17 408.411 -35.228 406.32 C-29.615 400.27 -24.301 394.051 -19.168 387.586 C-18.428 386.671 -18.428 386.671 -17.674 385.738 C29.266 327.631 62.033 255.342 54.056 179.368 C47.668 128.436 25.433 79.613 -10.168 42.586 C-10.742 41.985 -11.316 41.383 -11.908 40.764 C-20.119 32.204 -28.447 24.409 -38.168 17.586 C-38.755 17.17 -39.343 16.754 -39.948 16.326 C-109.839 -32.776 -211.326 -33.625 -274.804 30.243 Z " fill="#000000" transform="translate(809.16796875,184.4140625)"/>
</svg>
