<?xml version="1.0" encoding="UTF-8"?>
<!-- Generator: visioncortex VTracer 0.6.4 -->
<svg version="1.1" xmlns="http://www.w3.org/2000/svg" width="960" height="960">
<path d="M0 0 C316.8 0 633.6 0 960 0 C960 316.8 960 633.6 960 960 C643.2 960 326.4 960 0 960 C0 643.2 0 326.4 0 0 Z " fill="#FEFEFE" transform="translate(0,0)"/>
<path d="M0 0 C0.74 0.388 1.48 0.777 2.242 1.177 C12.747 6.736 22.572 12.764 32 20 C32.594 20.446 33.188 20.892 33.8 21.351 C51.508 34.714 68.096 50.927 81 69 C81.988 70.344 82.976 71.688 83.965 73.031 C95.919 89.446 106.024 107.046 114.008 125.732 C114.69 127.291 115.397 128.838 116.126 130.376 C119.379 137.266 121.868 144.229 124.125 151.5 C124.459 152.551 124.793 153.601 125.137 154.684 C128.724 166.064 131.575 177.302 133.625 189.062 C133.842 190.265 134.058 191.467 134.281 192.705 C136.046 202.691 137.145 212.476 137.238 222.617 C137.248 223.504 137.258 224.391 137.268 225.305 C137.445 245.559 137.032 265.072 133 285 C132.823 285.91 132.647 286.821 132.465 287.759 C126.797 316.296 116.153 344.364 102.179 369.831 C101.094 371.826 100.043 373.834 99.008 375.855 C85.25 402.61 67.137 427.102 47.621 449.906 C45.165 452.785 42.8 455.731 40.438 458.688 C36.744 463.234 32.776 467.36 28.555 471.418 C26.502 473.493 24.595 475.59 22.691 477.797 C18.989 482.068 15.07 486.079 11.062 490.062 C10.398 490.731 9.733 491.399 9.049 492.088 C5.134 495.995 1.109 499.71 -3.078 503.323 C-6.064 505.928 -8.93 508.656 -11.812 511.375 C-16.778 516.022 -21.853 520.443 -27.164 524.695 C-29.851 526.879 -32.473 529.119 -35.088 531.387 C-41.563 537.004 -48.193 542.351 -55.039 547.511 C-57.309 549.234 -59.563 550.978 -61.816 552.723 C-71.825 560.448 -81.965 567.859 -92.453 574.918 C-96.148 577.406 -99.784 579.966 -103.404 582.561 C-112.23 588.883 -121.293 594.745 -130.52 600.461 C-133.028 602.017 -135.528 603.584 -138.027 605.152 C-180.039 631.444 -223.939 655.924 -269.523 675.488 C-273.13 677.057 -276.68 678.721 -280.203 680.469 C-288.985 683.065 -306.626 671.849 -314.082 667.996 C-318.956 665.484 -323.921 663.162 -328.875 660.812 C-348.092 651.646 -366.939 642.097 -385.4 631.481 C-388.438 629.75 -391.503 628.073 -394.575 626.403 C-415.602 614.925 -435.7 602.023 -455.625 588.75 C-456.505 588.165 -457.384 587.58 -458.291 586.977 C-476.347 574.953 -493.859 562.294 -511 549 C-511.624 548.518 -512.248 548.036 -512.891 547.539 C-520.879 541.36 -528.68 534.995 -536.344 528.418 C-538.047 526.96 -539.757 525.511 -541.469 524.062 C-548.89 517.769 -556.125 511.31 -563.227 504.66 C-565.178 502.833 -567.134 501.012 -569.09 499.191 C-586.641 482.827 -586.641 482.827 -593.828 474.453 C-596.176 471.801 -598.595 469.225 -601.026 466.648 C-607.315 459.98 -613.324 453.204 -619 446 C-619.844 444.947 -620.69 443.895 -621.535 442.844 C-629.028 433.474 -636.095 423.809 -643 414 C-643.437 413.381 -643.873 412.762 -644.323 412.124 C-662.313 386.409 -677.619 357.958 -687.824 328.254 C-688.963 324.97 -688.963 324.97 -690.461 321.773 C-692.524 317.037 -693.681 312.061 -694.938 307.062 C-695.328 305.53 -695.328 305.53 -695.726 303.966 C-696.247 301.916 -696.766 299.865 -697.283 297.814 C-697.894 295.417 -698.525 293.028 -699.172 290.641 C-704.2 271.688 -706.222 252.392 -706.188 232.812 C-706.186 231.777 -706.186 231.777 -706.185 230.721 C-706.158 221.498 -706.019 212.471 -704.411 203.365 C-703.883 200.327 -703.41 197.281 -702.93 194.234 C-700.73 180.574 -698.301 167.164 -694 154 C-693.734 153.182 -693.469 152.364 -693.195 151.521 C-689.746 141.035 -685.914 130.9 -681 121 C-680.399 119.75 -679.799 118.5 -679.199 117.25 C-669.426 97.067 -657.59 78.061 -643 61 C-642.041 59.856 -641.083 58.711 -640.125 57.566 C-631.724 47.575 -623.001 38.362 -612.762 30.207 C-610.97 28.775 -609.2 27.315 -607.457 25.824 C-591.561 12.285 -572.319 0.911 -553 -7 C-552.018 -7.404 -552.018 -7.404 -551.017 -7.815 C-536.289 -13.83 -521.659 -18.077 -506 -21 C-504.616 -21.271 -503.232 -21.543 -501.848 -21.816 C-500.461 -22.086 -499.074 -22.356 -497.688 -22.625 C-496.454 -22.865 -495.22 -23.105 -493.949 -23.352 C-486.206 -24.712 -478.417 -25.164 -470.566 -25.238 C-469.699 -25.248 -468.831 -25.258 -467.937 -25.268 C-441.821 -25.501 -417.026 -24.166 -392 -16 C-390.196 -15.432 -390.196 -15.432 -388.355 -14.852 C-379.12 -11.763 -370.569 -7.577 -362 -3 C-361.087 -2.514 -361.087 -2.514 -360.155 -2.019 C-330.979 13.653 -308.053 36.469 -289.259 63.471 C-287.347 66.204 -285.477 68.753 -283 71 C-282.764 70.312 -282.528 69.623 -282.285 68.914 C-280.741 65.413 -278.681 62.45 -276.438 59.375 C-275.992 58.76 -275.547 58.144 -275.088 57.51 C-252.468 26.535 -224.993 4.49 -190 -11 C-188.618 -11.619 -188.618 -11.619 -187.209 -12.25 C-129.246 -37.41 -54.937 -28.958 0 0 Z " fill="#FE2C81" transform="translate(764,154)"/>
<path d="M0 0 C0.74 0.388 1.48 0.777 2.242 1.177 C12.747 6.736 22.572 12.764 32 20 C32.594 20.446 33.188 20.892 33.8 21.351 C51.508 34.714 68.096 50.927 81 69 C81.988 70.344 82.976 71.688 83.965 73.031 C95.919 89.446 106.024 107.046 114.008 125.732 C114.69 127.291 115.397 128.838 116.126 130.376 C119.379 137.266 121.868 144.229 124.125 151.5 C124.459 152.551 124.793 153.601 125.137 154.684 C128.724 166.064 131.575 177.302 133.625 189.062 C133.842 190.265 134.058 191.467 134.281 192.705 C136.046 202.691 137.145 212.476 137.238 222.617 C137.248 223.504 137.258 224.391 137.268 225.305 C137.445 245.559 137.032 265.072 133 285 C132.823 285.91 132.647 286.821 132.465 287.759 C126.797 316.296 116.153 344.364 102.179 369.831 C101.094 371.826 100.043 373.834 99.008 375.855 C85.25 402.61 67.137 427.102 47.621 449.906 C45.165 452.785 42.8 455.731 40.438 458.688 C36.744 463.234 32.776 467.36 28.555 471.418 C26.502 473.493 24.595 475.59 22.691 477.797 C18.989 482.068 15.07 486.079 11.062 490.062 C10.398 490.731 9.733 491.399 9.049 492.088 C5.134 495.995 1.109 499.71 -3.078 503.323 C-6.064 505.928 -8.93 508.656 -11.812 511.375 C-16.778 516.022 -21.853 520.443 -27.164 524.695 C-29.851 526.879 -32.473 529.119 -35.088 531.387 C-41.563 537.004 -48.193 542.351 -55.039 547.511 C-57.309 549.234 -59.563 550.978 -61.816 552.723 C-71.825 560.448 -81.965 567.859 -92.453 574.918 C-96.148 577.406 -99.784 579.966 -103.404 582.561 C-112.23 588.883 -121.293 594.745 -130.52 600.461 C-133.028 602.017 -135.528 603.584 -138.027 605.152 C-180.039 631.444 -223.939 655.924 -269.523 675.488 C-273.13 677.057 -276.68 678.721 -280.203 680.469 C-288.985 683.065 -306.626 671.849 -314.082 667.996 C-318.956 665.484 -323.921 663.162 -328.875 660.812 C-348.092 651.646 -366.939 642.097 -385.4 631.481 C-388.438 629.75 -391.503 628.073 -394.575 626.403 C-415.602 614.925 -435.7 602.023 -455.625 588.75 C-456.505 588.165 -457.384 587.58 -458.291 586.977 C-476.347 574.953 -493.859 562.294 -511 549 C-511.624 548.518 -512.248 548.036 -512.891 547.539 C-520.879 541.36 -528.68 534.995 -536.344 528.418 C-538.047 526.96 -539.757 525.511 -541.469 524.062 C-548.89 517.769 -556.125 511.31 -563.227 504.66 C-565.178 502.833 -567.134 501.012 -569.09 499.191 C-586.641 482.827 -586.641 482.827 -593.828 474.453 C-596.176 471.801 -598.595 469.225 -601.026 466.648 C-607.315 459.98 -613.324 453.204 -619 446 C-619.844 444.947 -620.69 443.895 -621.535 442.844 C-629.028 433.474 -636.095 423.809 -643 414 C-643.437 413.381 -643.873 412.762 -644.323 412.124 C-662.313 386.409 -677.619 357.958 -687.824 328.254 C-688.963 324.97 -688.963 324.97 -690.461 321.773 C-692.524 317.037 -693.681 312.061 -694.938 307.062 C-695.328 305.53 -695.328 305.53 -695.726 303.966 C-696.247 301.916 -696.766 299.865 -697.283 297.814 C-697.894 295.417 -698.525 293.028 -699.172 290.641 C-704.2 271.688 -706.222 252.392 -706.188 232.812 C-706.186 231.777 -706.186 231.777 -706.185 230.721 C-706.158 221.498 -706.019 212.471 -704.411 203.365 C-703.883 200.327 -703.41 197.281 -702.93 194.234 C-700.73 180.574 -698.301 167.164 -694 154 C-693.734 153.182 -693.469 152.364 -693.195 151.521 C-689.746 141.035 -685.914 130.9 -681 121 C-680.399 119.75 -679.799 118.5 -679.199 117.25 C-669.426 97.067 -657.59 78.061 -643 61 C-642.041 59.856 -641.083 58.711 -640.125 57.566 C-631.724 47.575 -623.001 38.362 -612.762 30.207 C-610.97 28.775 -609.2 27.315 -607.457 25.824 C-591.561 12.285 -572.319 0.911 -553 -7 C-552.018 -7.404 -552.018 -7.404 -551.017 -7.815 C-536.289 -13.83 -521.659 -18.077 -506 -21 C-504.616 -21.271 -503.232 -21.543 -501.848 -21.816 C-500.461 -22.086 -499.074 -22.356 -497.688 -22.625 C-496.454 -22.865 -495.22 -23.105 -493.949 -23.352 C-486.206 -24.712 -478.417 -25.164 -470.566 -25.238 C-469.699 -25.248 -468.831 -25.258 -467.937 -25.268 C-441.821 -25.501 -417.026 -24.166 -392 -16 C-390.196 -15.432 -390.196 -15.432 -388.355 -14.852 C-379.12 -11.763 -370.569 -7.577 -362 -3 C-361.087 -2.514 -361.087 -2.514 -360.155 -2.019 C-330.979 13.653 -308.053 36.469 -289.259 63.471 C-287.347 66.204 -285.477 68.753 -283 71 C-282.764 70.312 -282.528 69.623 -282.285 68.914 C-280.741 65.413 -278.681 62.45 -276.438 59.375 C-275.992 58.76 -275.547 58.144 -275.088 57.51 C-252.468 26.535 -224.993 4.49 -190 -11 C-188.618 -11.619 -188.618 -11.619 -187.209 -12.25 C-129.246 -37.41 -54.937 -28.958 0 0 Z M-530 24 C-531.537 24.549 -531.537 24.549 -533.105 25.109 C-554.986 33.627 -574.551 46.445 -592 62 C-592.515 62.454 -593.031 62.907 -593.562 63.375 C-620.932 87.513 -641.137 118.958 -654 153 C-654.27 153.71 -654.54 154.42 -654.818 155.151 C-667.906 190.205 -672.625 230.945 -666 268 C-665.855 268.83 -665.709 269.659 -665.56 270.514 C-654.264 332.606 -620.309 389.729 -577.98 435.836 C-576.092 437.9 -574.261 440.003 -572.438 442.125 C-569.505 445.498 -566.402 448.646 -563.188 451.75 C-561.278 453.715 -559.502 455.726 -557.719 457.805 C-554.205 461.847 -550.441 465.503 -546.5 469.125 C-545.09 470.432 -543.68 471.74 -542.27 473.047 C-541.56 473.702 -540.851 474.358 -540.12 475.033 C-538.073 476.933 -536.04 478.846 -534.012 480.766 C-527.752 486.682 -521.454 492.43 -514.719 497.809 C-512.264 499.787 -509.864 501.818 -507.475 503.875 C-499.983 510.313 -492.195 516.32 -484.305 522.261 C-481.957 524.033 -479.617 525.814 -477.277 527.598 C-460.057 540.676 -442.368 553.092 -424.101 564.667 C-421.897 566.065 -419.701 567.474 -417.504 568.883 C-378.176 594.026 -336.934 616.843 -294.322 635.912 C-292 637 -292 637 -288.75 638.875 C-284.591 640.576 -281.074 639.796 -276.91 638.198 C-274.601 637.16 -272.33 636.063 -270.062 634.938 C-269.222 634.529 -268.381 634.121 -267.515 633.7 C-265.005 632.476 -262.502 631.24 -260 630 C-258.741 629.384 -257.482 628.768 -256.223 628.152 C-252.129 626.139 -248.064 624.072 -244 622 C-242.961 621.471 -241.921 620.943 -240.85 620.398 C-215.648 607.555 -191.206 593.674 -167.094 578.888 C-164.51 577.311 -161.917 575.753 -159.312 574.211 C-149.384 568.308 -139.81 561.913 -130.25 555.438 C-129.598 554.996 -128.945 554.554 -128.273 554.099 C-116.424 546.065 -104.682 537.871 -93.25 529.25 C-92.599 528.76 -91.947 528.269 -91.276 527.764 C-79.602 518.946 -68.026 510.036 -56.93 500.496 C-54.223 498.19 -51.468 495.966 -48.688 493.75 C-41.784 488.133 -35.406 481.958 -28.952 475.838 C-26.625 473.646 -24.269 471.487 -21.908 469.332 C-12.799 461.014 -3.787 452.493 4.203 443.078 C6.07 440.919 7.998 438.825 9.94 436.734 C15.553 430.684 20.867 424.465 26 418 C26.74 417.085 26.74 417.085 27.494 416.152 C60.061 375.837 86.505 328.375 96 277 C96.252 275.766 96.252 275.766 96.508 274.507 C108.335 215.993 92.721 153.898 60.518 104.261 C52.986 93.041 44.403 82.692 35 73 C34.43 72.404 33.86 71.809 33.273 71.195 C25.057 62.629 16.728 54.828 7 48 C6.413 47.584 5.825 47.168 5.22 46.74 C-7.755 37.624 -21.038 30.336 -36 25 C-37.334 24.481 -38.668 23.96 -40 23.438 C-83.975 7.164 -137.655 5.546 -180.75 25.312 C-203.775 36.372 -224.605 52.538 -240 73 C-240.855 74.093 -241.711 75.185 -242.566 76.277 C-248.087 83.442 -252.878 90.903 -257.375 98.75 C-257.863 99.601 -258.35 100.451 -258.853 101.328 C-267.47 116.684 -273.736 133.232 -279 150 C-279.311 150.978 -279.621 151.957 -279.941 152.965 C-281.914 159.608 -282.65 166.088 -283 173 C-283.66 173 -284.32 173 -285 173 C-284.969 171.979 -284.938 170.958 -284.906 169.906 C-285.912 128.016 -318.177 80.837 -347.18 52.578 C-396.261 7.712 -469.132 1.976 -530 24 Z " fill="#010000" transform="translate(764,154)"/>
<path d="M0 0 C0.859 -0.008 1.719 -0.016 2.604 -0.024 C4.431 -0.038 6.257 -0.049 8.084 -0.057 C9.915 -0.068 11.747 -0.089 13.578 -0.118 C29.875 -0.384 45.511 1.409 60.809 7.363 C61.578 7.657 62.347 7.951 63.14 8.253 C87.992 18.061 110.589 34.264 127.309 55.238 C127.309 55.898 127.309 56.558 127.309 57.238 C123.261 56.182 119.477 54.927 115.621 53.301 C97.898 46.137 78.354 44.665 59.434 44.801 C58.552 44.803 57.67 44.806 56.761 44.808 C35.118 44.899 14.193 47.415 -6.691 53.238 C-9.224 53.869 -11.761 54.482 -14.298 55.096 C-22.578 57.108 -30.673 59.335 -38.691 62.238 C-39.849 62.621 -41.007 63.004 -42.199 63.398 C-67.276 71.935 -89.439 87.322 -108.691 105.238 C-109.408 105.889 -110.125 106.54 -110.863 107.211 C-133.887 129.016 -152.951 162.65 -159.016 193.754 C-159.239 194.574 -159.462 195.394 -159.691 196.238 C-160.351 196.568 -161.011 196.898 -161.691 197.238 C-161.767 191.605 -161.821 185.972 -161.856 180.338 C-161.871 178.43 -161.891 176.523 -161.918 174.616 C-162.146 157.643 -160.664 141.646 -155.656 125.375 C-154.756 122.45 -153.995 119.519 -153.254 116.551 C-151.682 110.788 -149.268 105.612 -146.691 100.238 C-146.082 98.889 -145.475 97.539 -144.871 96.188 C-140.86 87.295 -136.505 79.119 -130.691 71.238 C-130.296 70.696 -129.901 70.155 -129.494 69.596 C-110.903 44.301 -86.436 26.527 -57.691 14.238 C-56.959 13.924 -56.227 13.609 -55.473 13.285 C-44.747 8.742 -34.096 5.559 -22.691 3.238 C-21.135 2.917 -21.135 2.917 -19.547 2.59 C-17.924 2.262 -16.299 1.941 -14.672 1.633 C-13.376 1.375 -12.087 1.073 -10.812 0.725 C-7.257 -0.091 -3.632 0.033 0 0 Z " fill="#FFFDFE" transform="translate(290.69140625,194.76171875)"/>
<path d="M0 0 C1.183 0.03 2.367 0.059 3.586 0.09 C21.631 1.022 40.036 6.636 56 15 C56 15.33 56 15.66 56 16 C55.126 16.03 55.126 16.03 54.234 16.06 C36.9 16.677 20.672 17.828 4 23 C0.583 23.933 -2.836 24.86 -6.258 25.777 C-46.431 38.903 -86.707 63.28 -117.77 91.961 C-119.819 93.835 -121.925 95.603 -124.062 97.375 C-129.022 101.706 -132.989 106.802 -137 112 C-137.705 112.913 -138.41 113.825 -139.137 114.766 C-143.722 120.88 -147.526 127.196 -151 134 C-151.33 134 -151.66 134 -152 134 C-150.378 115.83 -146.103 98.39 -138 82 C-137.487 80.902 -136.974 79.803 -136.445 78.672 C-120.191 44.665 -91.391 20.114 -56.438 6.812 C-37.975 0.419 -19.383 -0.521 0 0 Z " fill="#FFFCFD" transform="translate(660,196)"/>
<path d="M0 0 C4.051 2.804 6.969 5.076 8 10 C8.06 14.242 7.471 17.227 5.25 20.875 C1.995 23.949 -0.538 24.813 -4.938 25.375 C-8.954 24.883 -10.919 23.602 -14 21 C-17.107 16.691 -17.431 13.217 -16.641 8.117 C-15.332 3.791 -12.345 1.759 -8.562 -0.375 C-5.228 -1.188 -3.292 -1.008 0 0 Z " fill="#FCFCFC" transform="translate(742,904)"/>
<path d="M0 0 C3 1.5 3 1.5 5 4 C6.35 8.438 6.328 11.957 4.938 16.375 C2.546 19.615 0.8 20.685 -3 22 C-6.812 22.25 -6.812 22.25 -10 22 C-11 21 -11 21 -11.114 18.959 C-11.108 18.084 -11.103 17.21 -11.098 16.309 C-11.094 15.364 -11.091 14.42 -11.088 13.447 C-11.08 12.454 -11.071 11.461 -11.062 10.438 C-11.058 9.44 -11.053 8.443 -11.049 7.416 C-11.037 4.944 -11.021 2.472 -11 0 C-7.489 -1.755 -3.737 -0.807 0 0 Z " fill="#BFBFBF" transform="translate(764,906)"/>
<path d="M0 0 C4 1 4 1 6.141 4.16 C6.857 5.454 7.56 6.755 8.25 8.062 C8.614 8.726 8.977 9.389 9.352 10.072 C10.246 11.708 11.125 13.353 12 15 C12.33 10.05 12.66 5.1 13 0 C13.99 0.33 14.98 0.66 16 1 C16 7.93 16 14.86 16 22 C11 21 11 21 8.98 18.059 C8.365 16.861 7.768 15.653 7.188 14.438 C6.876 13.822 6.565 13.206 6.244 12.572 C5.48 11.056 4.738 9.529 4 8 C3.67 12.62 3.34 17.24 3 22 C2.01 22 1.02 22 0 22 C0 14.74 0 7.48 0 0 Z " fill="#B8B8B8" transform="translate(830,905)"/>
<path d="M0 0 C1.32 0 2.64 0 4 0 C6.31 6.93 8.62 13.86 11 21 C9.68 21.33 8.36 21.66 7 22 C6 21 6 21 5.938 18.438 C5.958 17.633 5.979 16.829 6 16 C3.69 16.33 1.38 16.66 -1 17 C-1.99 19.475 -1.99 19.475 -3 22 C-4.32 21.67 -5.64 21.34 -7 21 C-4.69 14.07 -2.38 7.14 0 0 Z " fill="#BABABA" transform="translate(855,905)"/>
<path d="M0 0 C3.562 0.188 3.562 0.188 5.562 2.188 C3.68 4.07 0.992 3.594 -1.527 3.809 C-3.67 4.05 -3.67 4.05 -5.438 6.188 C-5.795 8.522 -5.795 8.522 -5.75 11.125 C-5.767 12 -5.784 12.876 -5.801 13.777 C-5.37 16.634 -4.728 17.483 -2.438 19.188 C0.169 19.909 0.169 19.909 2.562 20.188 C2.562 17.878 2.562 15.567 2.562 13.188 C1.572 13.188 0.582 13.188 -0.438 13.188 C-0.438 12.197 -0.438 11.207 -0.438 10.188 C1.562 10.145 3.563 10.147 5.562 10.188 C6.562 11.188 6.562 11.188 6.66 13.473 C6.649 14.389 6.637 15.306 6.625 16.25 C6.616 17.169 6.607 18.088 6.598 19.035 C6.586 19.745 6.574 20.456 6.562 21.188 C2.329 23.641 -0.795 23.385 -5.438 22.188 C-8.418 20.201 -9.525 17.608 -10.438 14.188 C-10.619 9.483 -10.036 6.891 -6.938 3.25 C-6.112 2.569 -5.288 1.889 -4.438 1.188 C-3.438 0.188 -3.438 0.188 0 0 Z " fill="#BDBDBD" transform="translate(820.4375,904.8125)"/>
<path d="M0 0 C0.99 0 1.98 0 3 0 C3.33 2.64 3.66 5.28 4 8 C5.98 5.36 7.96 2.72 10 0 C11.32 0.33 12.64 0.66 14 1 C13.544 1.519 13.087 2.039 12.617 2.574 C10.902 4.655 9.359 6.67 8 9 C8.193 11.735 8.193 11.735 10 14 C14 20 14 20 14 22 C12.68 22 11.36 22 10 22 C8.35 19.03 6.7 16.06 5 13 C4.67 13 4.34 13 4 13 C3.67 15.97 3.34 18.94 3 22 C2.01 22 1.02 22 0 22 C0 14.74 0 7.48 0 0 Z " fill="#B4B4B4" transform="translate(891,905)"/>
<path d="M0 0 C4.051 2.804 6.969 5.076 8 10 C8.06 14.242 7.471 17.227 5.25 20.875 C1.995 23.949 -0.538 24.813 -4.938 25.375 C-8.954 24.883 -10.919 23.602 -14 21 C-17.107 16.691 -17.431 13.217 -16.641 8.117 C-15.332 3.791 -12.345 1.759 -8.562 -0.375 C-5.228 -1.188 -3.292 -1.008 0 0 Z M-14 6 C-15.532 9.064 -15.229 11.617 -15 15 C-13.219 19.124 -11.188 21.325 -7 23 C-2.742 23.288 0.109 22.691 3.5 20.062 C5.659 15.656 5.884 11.813 5 7 C3.27 3.686 3.27 3.686 0 2 C-5.813 0.833 -9.826 1.565 -14 6 Z " fill="#BDBDBD" transform="translate(742,904)"/>
<path d="M0 0 C2.31 0.33 4.62 0.66 7 1 C9.081 4.122 9.274 4.933 9.25 8.5 C9.255 9.273 9.26 10.047 9.266 10.844 C9 13 9 13 7 16 C4.69 16.33 2.38 16.66 0 17 C0 11.39 0 5.78 0 0 Z " fill="#FEFEFE" transform="translate(757,908)"/>
<path d="M0 0 C0.33 0.99 0.66 1.98 1 3 C-1.31 3 -3.62 3 -6 3 C-5.962 5.372 -5.962 5.372 -5 8 C-2.093 10.16 -2.093 10.16 1 12 C3 15 3 15 2.938 17.5 C2 20 2 20 -0.125 21.875 C-3.785 23.307 -6.209 22.818 -10 22 C-10 21.01 -10 20.02 -10 19 C-7.36 19 -4.72 19 -2 19 C-1.498 16.67 -1.498 16.67 -2 14 C-4.853 11.821 -4.853 11.821 -8 10 C-10 7 -10 7 -9.812 5 C-7.752 -0.072 -5.263 -0.351 0 0 Z " fill="#BABABA" transform="translate(797,905)"/>
<path d="M0 0 C3.3 0 6.6 0 10 0 C10 0.66 10 1.32 10 2 C7.36 2 4.72 2 2 2 C2.33 3.98 2.66 5.96 3 8 C5.31 8.33 7.62 8.66 10 9 C10 9.66 10 10.32 10 11 C7.36 11 4.72 11 2 11 C2.33 13.31 2.66 15.62 3 18 C5.64 18.33 8.28 18.66 11 19 C11 19.66 11 20.32 11 21 C7.37 21 3.74 21 0 21 C0 14.07 0 7.14 0 0 Z " fill="#B2B2B2" transform="translate(916,906)"/>
<path d="M0 0 C3.3 0 6.6 0 10 0 C10 0.66 10 1.32 10 2 C7.36 2 4.72 2 2 2 C2.33 3.98 2.66 5.96 3 8 C5.31 8.33 7.62 8.66 10 9 C10 9.66 10 10.32 10 11 C7.36 11 4.72 11 2 11 C2.33 13.31 2.66 15.62 3 18 C5.64 18.33 8.28 18.66 11 19 C11 19.66 11 20.32 11 21 C7.37 21 3.74 21 0 21 C0 14.07 0 7.14 0 0 Z " fill="#B2B2B2" transform="translate(774,906)"/>
<path d="M0 0 C0.99 0 1.98 0 3 0 C3 6.27 3 12.54 3 19 C5.64 19 8.28 19 11 19 C11 19.66 11 20.32 11 21 C7.37 21 3.74 21 0 21 C0 14.07 0 7.14 0 0 Z " fill="#B2B2B2" transform="translate(869,906)"/>
<path d="M0 0 C0 0.66 0 1.32 0 2 C-2.64 2.33 -5.28 2.66 -8 3 C-8.677 6.403 -8.677 6.403 -9 10 C-7.044 12.411 -7.044 12.411 -3.375 12.125 C-2.261 12.084 -1.148 12.043 0 12 C-0.33 12.99 -0.66 13.98 -1 15 C-7.222 15.479 -7.222 15.479 -10.438 13.5 C-12.326 10.479 -12.7 8.438 -12.516 4.91 C-12 3 -12 3 -9.375 0.438 C-5.612 -1.165 -3.876 -1.108 0 0 Z " fill="#B9B9B9" transform="translate(743,909)"/>
<path d="M0 0 C0 3 0 3 -1.5 4.75 C-3.646 7.969 -3.4 10.204 -3 14 C-1.748 16.818 -0.758 18.459 1.75 20.25 C4.793 21.264 7.821 21.633 11 22 C9 24 9 24 6.25 24.375 C2.113 23.898 0.171 22.678 -3 20 C-6.109 15.688 -6.41 12.228 -5.66 7.125 C-4.643 3.851 -2.629 2.09 0 0 Z " fill="#B8B8B8" transform="translate(731,905)"/>
<path d="M0 0 C0.99 0 1.98 0 3 0 C3 6.93 3 13.86 3 21 C2.01 21 1.02 21 0 21 C0 14.07 0 7.14 0 0 Z " fill="#B2B2B2" transform="translate(908,906)"/>
<path d="M0 0 C1.32 0.33 2.64 0.66 4 1 C3.097 2.322 2.177 3.632 1.25 4.938 C0.74 5.668 0.229 6.399 -0.297 7.152 C-2.192 9.208 -3.274 9.627 -6 10 C-4.63 6.005 -2.743 3.2 0 0 Z " fill="#BCBCBC" transform="translate(901,905)"/>
<path d="M0 0 C0 0.66 0 1.32 0 2 C-1.279 2.124 -2.558 2.247 -3.875 2.375 C-7.348 2.69 -7.348 2.69 -10 5 C-10.66 5 -11.32 5 -12 5 C-11.052 2.63 -10.311 1.233 -8.25 -0.312 C-5.248 -1.23 -3.022 -0.687 0 0 Z " fill="#C2C2C2" transform="translate(743,909)"/>
<path d="M0 0 C0.66 0.33 1.32 0.66 2 1 C2.407 3.322 2.744 5.657 3 8 C1.68 8 0.36 8 -1 8 C-0.67 5.36 -0.34 2.72 0 0 Z " fill="#FAFAFA" transform="translate(856,910)"/>
<path d="M0 0 C0 0.66 0 1.32 0 2 C-2.64 2.33 -5.28 2.66 -8 3 C-8 2.01 -8 1.02 -8 0 C-4.947 -0.981 -3.053 -0.981 0 0 Z " fill="#C5C5C5" transform="translate(740,904)"/>
</svg>
